HIERARCHY
ROOT hip
{
	OFFSET 0.000000 0.000000 0.000000 
	CHANNELS 6 Xposition Yposition Zposition Xrotation Zrotation Yrotation
	JOINT abdomen
	{
		OFFSET 0.000000 3.402643 0.000000 
		CHANNELS 3 Xrotation Zrotation Yrotation
		JOINT chest
		{
			OFFSET 0.000000 8.438565 -0.680529 
			CHANNELS 3 Xrotation Zrotation Yrotation
			JOINT neck
			{
				OFFSET 0.000000 10.207942 -0.272212 
				CHANNELS 3 Xrotation Zrotation Yrotation
				JOINT head
				{
					OFFSET 0.000000 3.130431 0.000000 
					CHANNELS 3 Xrotation Zrotation Yrotation
					End Site
					{
						OFFSET 0.000000 3.130435 0.000000 
					}
				}
			}
			JOINT lCollar
			{
				OFFSET 3.470700 6.669187 -0.816635 
				CHANNELS 3 Yrotation Zrotation Xrotation
				JOINT lShldr
				{
					OFFSET 3.198488 0.000000 0.000000 
					CHANNELS 3 Zrotation Yrotation Xrotation
					JOINT lForeArm
					{
						OFFSET 10.139888 0.000000 0.000000 
						CHANNELS 3 Yrotation Zrotation Xrotation
						JOINT lHand
						{
							OFFSET 8.370511 0.000000 0.000000 
							CHANNELS 3 Zrotation Yrotation Xrotation
							End Site
							{
								OFFSET 4.083176 0.000000 0.000000 
							}
						}
					}
				}
			}
			JOINT rCollar
			{
				OFFSET -3.470700 6.669187 -0.816635 
				CHANNELS 3 Yrotation Zrotation Xrotation
				JOINT rShldr
				{
					OFFSET -3.198488 0.000000 0.000000 
					CHANNELS 3 Zrotation Yrotation Xrotation
					JOINT rForeArm
					{
						OFFSET -10.139888 0.000000 0.000000 
						CHANNELS 3 Yrotation Zrotation Xrotation
						JOINT rHand
						{
							OFFSET -8.370511 0.000000 0.000000 
							CHANNELS 3 Zrotation Yrotation Xrotation
							End Site
							{
								OFFSET -4.083176 0.000000 0.000000 
							}
						}
					}
				}
			}
		}
	}
	JOINT lThigh
	{
		OFFSET 5.308129 -1.633274 1.361059 
		CHANNELS 3 Xrotation Zrotation Yrotation
		JOINT lShin
		{
			OFFSET -2.041588 -20.007561 0.000000 
			CHANNELS 3 Xrotation Zrotation Yrotation
			JOINT lFoot
			{
				OFFSET 0.000000 -19.190928 -1.224953 
				CHANNELS 3 Xrotation Yrotation Zrotation
				End Site
				{
					OFFSET 0.000000 -2.449906 4.627600 
				}
			}
		}
	}
	JOINT rThigh
	{
		OFFSET -5.308129 -1.633274 1.361059 
		CHANNELS 3 Xrotation Zrotation Yrotation
		JOINT rShin
		{
			OFFSET 2.041588 -20.007561 0.000000 
			CHANNELS 3 Xrotation Zrotation Yrotation
			JOINT rFoot
			{
				OFFSET 0.000000 -19.190928 -1.224953 
				CHANNELS 3 Xrotation Yrotation Zrotation
				End Site
				{
					OFFSET 0.000000 -2.449906 4.627600 
				}
			}
		}
	}
}
MOTION
Frames: 6
Frame Time: 0.016667
-0.707704 52.308018 3.221884 10.254641 -0.682285 3.108883 19.443377 -3.085286 0.727412 -16.583637 0.786195 1.523713 -9.735794 -2.483291 -3.578374 15.662251 3.902730 -1.992559 1.993417 -2.013218 -0.007815 -82.968201 9.061505 14.047464 -45.498230 1.039549 6.229206 -0.181723 -0.029046 -7.500002 -2.003164 1.994041 -0.018257 89.567368 -9.335911 0.138077 40.555008 -2.686388 0.344584 2.801126 -3.024616 2.434950 -18.115837 4.323494 2.745740 25.809036 -3.623970 -1.852606 -2.988204 -0.030144 0.019309 -15.266526 -2.128100 1.744766 24.884604 3.597980 1.800164 -0.507093 0.025267 0.009708 
-0.705679 52.363060 3.253720 10.274174 -0.682243 3.030526 19.413345 -3.049001 0.713183 -16.612976 0.795433 1.510754 -9.618642 -2.503413 -3.541132 15.701215 3.892582 -1.973006 1.993417 -2.013218 -0.007815 -83.118385 9.107450 13.840493 -45.439087 1.032125 6.227846 -0.181723 -0.029046 -7.500002 -2.003164 1.994041 -0.018257 89.546135 -9.013671 0.028936 40.095161 -2.669021 0.331727 2.801126 -3.024616 2.434950 -18.282011 4.304166 2.266463 25.862528 -3.662234 -1.884291 -2.998019 -0.015854 0.004059 -15.291178 -2.128505 1.684817 24.785145 3.608850 1.775221 -0.497108 0.028577 0.010977 
-0.695136 52.410137 3.278649 10.332792 -0.691723 2.901122 19.383669 -3.031125 0.750512 -16.612936 0.786075 1.523311 -9.530811 -2.523323 -3.492917 15.730575 3.892023 -1.941721 1.993417 -2.013218 -0.007815 -83.234055 9.141969 13.683240 -45.371124 1.039540 6.226786 -0.181723 -0.029046 -7.500002 -2.003164 1.994041 -0.018257 89.530540 -8.789058 -0.059398 39.733410 -2.664822 0.322408 2.801126 -3.024616 2.434950 -18.475538 4.267666 1.985188 25.943480 -3.646488 -1.886706 -2.978461 -0.024195 0.011197 -15.305952 -2.137813 1.519168 24.637083 3.599075 1.801571 -0.488256 0.001170 0.010911 
-0.688616 52.418091 3.299869 10.391348 -0.672383 2.806284 19.363602 -3.003849 0.751480 -16.613014 0.804791 1.517728 -9.462388 -2.523826 -3.427567 15.759934 3.891462 -1.920201 1.993417 -2.013218 -0.007815 -83.312820 9.194696 13.546814 -45.331402 1.029994 6.225808 -0.181723 -0.029046 -7.500002 -2.003164 1.994041 -0.018257 89.474167 -8.798828 -0.011145 39.713863 -2.664932 0.321500 2.801126 -3.024616 2.434950 -18.524443 4.257788 1.909973 25.954136 -3.637735 -1.895302 -2.988282 -0.005486 0.008303 -15.372970 -2.177201 1.440470 24.657906 3.593600 1.792180 -0.497358 0.024480 0.009403 
-0.689244 52.406902 3.323773 10.430372 -0.653090 2.780068 19.333595 -2.967528 0.726869 -16.613132 0.832865 1.509353 -9.442980 -2.543236 -3.366635 15.759934 3.891462 -1.890904 1.993417 -2.013218 -0.007815 -83.407310 9.236431 13.450494 -45.282097 1.028378 6.231786 -0.181723 -0.029046 -7.500002 -2.003164 1.994041 -0.018257 89.432076 -8.828126 0.009650 39.792030 -2.658246 0.332639 2.801126 -3.024616 2.434950 -18.478731 4.197303 1.670521 25.874662 -3.652714 -1.853865 -2.987905 -0.054659 0.009276 -15.457594 -2.167810 1.493448 24.765385 3.609028 1.773843 -0.497943 0.009529 0.003660 
-0.692513 52.388821 3.349674 10.449905 -0.653049 2.799376 19.322989 -2.921628 0.665388 -16.642643 0.879521 1.475415 -9.491855 -2.542875 -3.305875 15.721148 3.911010 -1.868744 1.993417 -2.013218 -0.007815 -83.506035 9.289165 13.312516 -45.223839 1.034738 6.230731 -0.181723 -0.029046 -7.500002 -2.003164 1.994041 -0.018257 89.394531 -8.896485 -0.001510 39.909412 -2.670081 0.323085 2.801126 -3.024616 2.434950 -18.424631 4.140095 1.402031 25.837414 -3.627965 -1.875005 -2.998030 -0.012972 0.005239 -15.492395 -2.157490 1.539649 24.904327 3.598034 1.801588 -0.517258 0.017007 0.006536 
